<?xml version="1.0" standalone="no"?>
<!DOCTYPE svg PUBLIC "-//W3C//DTD SVG 20010904//EN"
 "http://www.w3.org/TR/2001/REC-SVG-20010904/DTD/svg10.dtd">
<svg version="1.0" xmlns="http://www.w3.org/2000/svg"
 width="500.000000pt" height="500.000000pt" viewBox="0 0 500.000000 500.000000"
 preserveAspectRatio="xMidYMid meet">

<g transform="translate(0.000000,500.000000) scale(0.100000,-0.100000)"
fill="#000000" stroke="none">
<path d="M1880 2955 l0 -595 170 0 170 0 0 595 0 595 -170 0 -170 0 0 -595z"/>
<path d="M1278 3337 l-378 -150 0 -122 0 -122 378 -149 377 -150 3 160 c1 87
1 160 -1 162 -2 2 -72 25 -156 51 -109 33 -148 49 -135 55 11 4 81 26 157 49
l137 42 0 164 c0 90 -1 163 -2 162 -2 0 -173 -69 -380 -152z"/>
<path d="M2603 2763 c-27 -66 -435 -1117 -440 -1135 -5 -17 8 -18 174 -18
l180 0 32 85 32 85 203 0 203 0 33 -85 33 -85 178 0 c99 0 179 3 179 8 0 4
-103 270 -228 592 l-227 585 -168 3 -168 2 -16 -37z m251 -554 l63 -174 -69
-3 c-38 -2 -97 -2 -132 0 l-64 3 49 135 c76 210 81 221 85 217 3 -3 33 -83 68
-178z"/>
<path d="M3500 2156 l0 -163 143 -43 c78 -24 148 -46 155 -50 7 -3 -57 -28
-142 -55 l-156 -49 0 -163 0 -163 43 17 c23 9 195 78 382 153 l340 136 0 120
0 119 -295 117 c-162 65 -334 133 -382 152 l-88 35 0 -163z"/>
</g>
</svg>
