<?xml version="1.0" encoding="utf-8"?>
<!-- Generator: Adobe Illustrator 28.0.0, SVG Export Plug-In . SVG Version: 6.00 Build 0)  -->
<svg version="1.1" id="Capa_1" xmlns="http://www.w3.org/2000/svg" xmlns:xlink="http://www.w3.org/1999/xlink" x="0px" y="0px"
	 viewBox="0 0 560 400" style="enable-background:new 0 0 560 400;" xml:space="preserve">
<style type="text/css">
	.st0{fill:#9B4993;}
	.st1{fill:#682876;}
	.st2{fill:#823085;}
	.st3{fill:#FFFFFF;}
</style>
<g>
	<g transform="matrix(.831388 0 0 .831388 145 48.2714)">
		<path class="st0" d="M380.4,85.1c0-8-1.7-15-5.2-21.1c-3.4-6-8.5-10.9-15.3-14.9c-56.2-32.4-112.5-64.8-168.7-97.2
			c-15.2-8.7-29.9-8.4-44.9,0.4C123.9-34.4,11.9,29.8-21.5,49.1c-13.8,8-20.4,20.1-20.4,36c0,65.2,0,130.4,0,195.6
			c0,7.8,1.6,14.7,4.9,20.7c3.4,6.1,8.5,11.3,15.5,15.3c33.4,19.3,145.5,83.5,167.9,96.8c15.1,8.9,29.7,9.2,44.9,0.4
			c56.2-32.5,112.5-64.8,168.8-97.2c7-4,12.1-9.2,15.5-15.3c3.3-6,4.9-12.9,4.9-20.7C380.4,280.7,380.4,150.3,380.4,85.1L380.4,85.1
			z"/>
		<path class="st1" d="M169.9,182.3L-37.1,301.4c3.4,6.1,8.5,11.3,15.5,15.3c33.4,19.3,145.5,83.5,167.9,96.8
			c15.1,8.9,29.7,9.2,44.9,0.4c56.2-32.5,112.5-64.8,168.8-97.2c7-4,12.1-9.2,15.5-15.3L169.9,182.3z"/>
		<path class="st1" d="M108.6,217.6c12,21,34.7,35.2,60.6,35.2c26.1,0,48.9-14.4,60.9-35.6l-60.2-34.9L108.6,217.6z"/>
		<path class="st2" d="M380.4,85.1c0-8-1.7-15-5.2-21.1L169.9,182.3l205.6,119.1c3.3-6,4.9-12.9,4.9-20.7
			C380.4,280.7,380.4,150.3,380.4,85.1L380.4,85.1z"/>
		<path class="st3" d="M230.1,217.2c-12,21.2-34.7,35.6-60.9,35.6c-26,0-48.6-14.2-60.6-35.2c-5.8-10.2-9.2-22-9.2-34.7
			c0-38.6,31.3-69.9,69.9-69.9c25.8,0,48.3,14,60.4,34.8l61.1-35.2c-24.3-41.9-69.6-70.1-121.5-70.1c-77.5,0-140.3,62.8-140.3,140.3
			c0,25.4,6.8,49.3,18.6,69.8c24.2,42.1,69.6,70.5,121.7,70.5c52.2,0,97.7-28.5,121.8-70.7L230.1,217.2z"/>
	</g>
	<g>
		<path class="st3" d="M388.9,172.8h11.5v55.9h-11.5V172.8z"/>
		<path class="st3" d="M414.5,172.8H426v55.9h-11.5V172.8z"/>
		<path class="st3" d="M379.5,182.2h55.9v11.5h-55.9V182.2z"/>
		<path class="st3" d="M379.5,207.7h55.9v11.5h-55.9V207.7z"/>
	</g>
</g>
</svg>
