<?xml version="1.0" encoding="utf-8"?>
<!-- Generator: Adobe Illustrator 28.0.0, SVG Export Plug-In . SVG Version: 6.00 Build 0)  -->
<svg version="1.1" id="Capa_1" xmlns="http://www.w3.org/2000/svg" xmlns:xlink="http://www.w3.org/1999/xlink" x="0px" y="0px"
	 viewBox="0 0 800 800" style="enable-background:new 0 0 800 800;" xml:space="preserve">
<style type="text/css">
	.st0{fill:#89CFE2;}
</style>
<path class="st0" d="M736.4,613.2c-43.5-1.1-77.2,3.3-105.5,15.2c-8.2,3.3-21.2,3.3-22.3,13.6c4.4,4.4,4.9,11.4,8.7,17.4
	c6.5,10.9,17.9,25.6,28.3,33.2c11.4,8.7,22.8,17.4,34.8,25c21.2,13,45.1,20.7,65.8,33.7c12,7.6,23.9,17.4,35.9,25.6
	c6,4.3,9.8,11.4,17.4,14.1v-1.6c-3.8-4.9-4.9-12-8.7-17.4c-5.4-5.4-10.9-10.3-16.3-15.8c-15.8-21.2-35.3-39.7-56.5-54.9
	c-17.4-12-55.5-28.3-62.5-48.4c0,0-0.5-0.5-1.1-1.1c12-1.1,26.1-5.4,37.5-8.7c18.5-4.9,35.3-3.8,54.4-8.7c8.7-2.2,17.4-4.9,26.1-7.6
	v-4.9c-9.8-9.8-16.9-22.8-27.2-32.1c-27.7-23.9-58.2-47.3-89.7-66.9c-16.9-10.9-38.6-17.9-56.5-27.2c-6.5-3.3-17.4-4.9-21.2-10.3
	c-9.8-12-15.2-27.7-22.3-41.9c-15.8-29.9-31-63.1-44.6-94.6c-9.8-21.2-15.8-42.4-27.7-62c-56-92.4-116.9-148.4-210.4-203.3
	c-20.1-11.4-44-16.3-69.6-22.3c-13.6-0.5-27.2-1.6-40.8-2.2c-8.7-3.8-17.4-14.1-25-19c-31-19.6-110.9-62-133.7-6
	c-14.7,35.3,21.7,70.1,34.3,88.1C47,134.7,59,148.9,65.5,163c3.8,9.2,4.9,19,8.7,28.8c8.7,23.9,16.9,50.6,28.3,72.9
	c6,11.4,12.5,23.4,20.1,33.7c4.3,6,12,8.7,13.6,18.5c-7.6,10.9-8.2,27.2-12.5,40.8c-19.6,61.4-12,137.6,15.8,182.7
	c8.7,13.6,29.4,43.5,57.1,32.1c24.5-9.8,19-40.8,26.1-68c1.6-6.5,0.5-10.9,3.8-15.2c0,0.5,0,1.1,0,1.1c7.6,15.2,15.2,29.9,22.3,45.1
	c16.9,26.6,46.2,54.4,70.7,72.9c13.1,9.8,23.4,26.6,39.7,32.6v-1.6H358c-3.3-4.9-8.2-7.1-12.5-10.9c-9.8-9.8-20.7-21.7-28.3-32.6
	c-22.8-30.4-43-64.2-60.9-99c-8.7-16.9-16.3-35.3-23.4-52.2c-3.3-6.5-3.3-16.3-8.7-19.6c-8.2,12-20.1,22.3-26.1,37
	c-10.3,23.4-11.4,52.2-15.2,82.1c-2.2,0.5-1.1,0-2.2,1.1c-17.4-4.4-23.4-22.3-29.9-37.5c-16.3-38.6-19-100.6-4.9-145.2
	c3.8-11.4,20.1-47.3,13.6-58.2c-3.3-10.3-14.1-16.3-20.1-24.5c-7.1-10.3-14.7-23.4-19.6-34.8c-13-30.4-19.6-64.2-33.7-94.6
	c-6.5-14.1-17.9-28.8-27.2-41.9c-10.3-14.7-21.7-25-29.9-42.4c-2.7-6-6.5-15.8-2.2-22.3c1.1-4.3,3.3-6,7.6-7.1
	c7.1-6,27.2,1.6,34.3,4.9c20.1,8.2,37,15.8,53.8,27.2c7.6,5.4,15.8,15.8,25.6,18.5h11.4c17.4,3.8,37,1.1,53.3,6
	c28.8,9.2,54.9,22.8,78.3,37.5c71.2,45.1,129.9,109.3,169.6,185.9c6.5,12.5,9.2,23.9,15.2,37c11.4,26.6,25.6,53.8,37,79.9
	c11.4,25.6,22.3,51.7,38.6,72.9C559.7,518,592.3,524,607,530c10.9,4.9,27.7,9.2,37.5,15.2c18.5,11.4,37,24.5,54.4,37
	C707.6,588.7,734.8,602.3,736.4,613.2L736.4,613.2L736.4,613.2z"/>
<path class="st0" d="M181.8,140.7c-9.2,0-15.8,1.1-22.3,2.7c0,0,0,0.5,0,1.1h1.1c4.4,8.7,12,14.7,17.4,22.3
	c4.4,8.7,8.2,17.4,12.5,26.1c0.5-0.5,1.1-1.1,1.1-1.1c7.6-5.4,11.4-14.1,11.4-27.2c-3.3-3.8-3.8-7.6-6.5-11.4
	C193.3,147.8,186.2,145,181.8,140.7L181.8,140.7L181.8,140.7z"/>
</svg>
