<?xml version="1.0"?>
<svg width="24" height="24" xmlns="http://www.w3.org/2000/svg" xmlns:svg="http://www.w3.org/2000/svg" xml:space="preserve">

 <g class="layer">
  <title>Layer 1</title>
  <path clip-rule="evenodd" d="m12,5.05c-3.17,0 -5.14,1.57 -5.94,4.71c1.19,-1.57 2.58,-2.16 4.16,-1.77c0.9,0.23 1.54,0.88 2.27,1.6c1.16,1.18 2.51,2.53 5.45,2.53c3.17,0 5.14,-1.57 5.94,-4.73c-1.19,1.58 -2.58,2.17 -4.16,1.78c-0.9,-0.23 -1.54,-0.88 -2.27,-1.6c-1.16,-1.18 -2.51,-2.53 -5.45,-2.53zm-5.94,7.08c-3.17,0 -5.14,1.57 -5.94,4.73c1.19,-1.58 2.58,-2.17 4.16,-1.78c0.9,0.23 1.54,0.88 2.27,1.6c1.16,1.18 2.51,2.53 5.45,2.53c3.17,0 5.14,-1.57 5.94,-4.71c-1.19,1.57 -2.58,2.16 -4.16,1.77c-0.9,-0.23 -1.54,-0.88 -2.26,-1.6c-1.18,-1.18 -2.52,-2.53 -5.46,-2.53z" fill="#38bdf8" fill-rule="evenodd" id="svg_1" style="--darkreader-inline-fill: #0677a9;"/>
 </g>
</svg>