<?xml version="1.0" encoding="UTF-8"?>
<svg id="Capa_1" data-name="Capa 1" xmlns="http://www.w3.org/2000/svg" viewBox="0 0 336.5 208">
  <defs>
    <style>
      .cls-1 {
        fill: #fff;
        stroke-width: 0px;
      }
    </style>
  </defs>
  <path class="cls-1" d="m98,59.5v59.5h34V0h-34v59.5Z"/>
  <path class="cls-1" d="m37.8,21.3L0,36.3v24.4l37.8,14.9,37.7,15,.3-16c.1-8.7.1-16-.1-16.2s-7.2-2.5-15.6-5.1c-10.9-3.3-14.8-4.9-13.5-5.5,1.1-.4,8.1-2.6,15.7-4.9l13.7-4.2v-16.4c0-9-.1-16.3-.2-16.2-.2,0-17.3,6.9-38,15.2Z"/>
  <path class="cls-1" d="m170.3,78.7c-2.7,6.6-43.5,111.7-44,113.5-.5,1.7.8,1.8,17.4,1.8h18l3.2-8.5,3.2-8.5h40.6l3.3,8.5,3.3,8.5h17.8c9.9,0,17.9-.3,17.9-.8,0-.4-10.3-27-22.8-59.2l-22.7-58.5-16.8-.3-16.8-.2-1.6,3.7Zm25.1,55.4l6.3,17.4-6.9.3c-3.8.2-9.7.2-13.2,0l-6.4-.3,4.9-13.5c7.6-21,8.1-22.1,8.5-21.7.3.3,3.3,8.3,6.8,17.8Z"/>
  <path class="cls-1" d="m260,139.4v16.3l14.3,4.3c7.8,2.4,14.8,4.6,15.5,5,.7.3-5.7,2.8-14.2,5.5l-15.6,4.9v32.6l4.3-1.7c2.3-.9,19.5-7.8,38.2-15.3l34-13.6v-23.9l-29.5-11.7c-16.2-6.5-33.4-13.3-38.2-15.2l-8.8-3.5v16.3Z"/>
</svg>